<svg width="16" height="16" viewBox="0 0 16 16" fill="none" xmlns="http://www.w3.org/2000/svg">
<path d="M9.06059 7.99965L15.2803 1.77997C15.4208 1.63929 15.4997 1.44858 15.4996 1.24975C15.4995 1.05092 15.4205 0.860257 15.2799 0.719665C15.1393 0.579074 14.9487 0.500062 14.7499 0.5C14.551 0.499938 14.3603 0.57883 14.2196 0.719333L7.99995 6.93901L1.78027 0.719333C1.63959 0.57883 1.44888 0.499938 1.25005 0.5C1.05122 0.500062 0.860556 0.579074 0.719964 0.719665C0.579373 0.860257 0.500361 1.05092 0.500299 1.24975C0.500237 1.44858 0.579129 1.63929 0.719632 1.77997L6.93931 7.99965L0.719632 14.2193C0.649918 14.289 0.594606 14.3716 0.556858 14.4627C0.51911 14.5537 0.499665 14.6512 0.499634 14.7498C0.499603 14.8483 0.518987 14.9458 0.556678 15.0369C0.594369 15.1279 0.649629 15.2106 0.719299 15.2803C0.78897 15.35 0.871686 15.4052 0.962721 15.4429C1.05376 15.4806 1.15133 15.5 1.24985 15.5C1.34838 15.4999 1.44594 15.4805 1.53695 15.4427C1.62796 15.405 1.71064 15.3497 1.78027 15.28L7.99995 9.06029L14.2196 15.28C14.3603 15.4205 14.551 15.4994 14.7499 15.4993C14.9487 15.4992 15.1393 15.4202 15.2799 15.2796C15.4205 15.139 15.4995 14.9484 15.4996 14.7496C15.4997 14.5507 15.4208 14.36 15.2803 14.2193L9.06059 7.99965Z" fill="white"/>
</svg>
