<svg width="24" height="24" viewBox="0 0 24 24" fill="none" xmlns="http://www.w3.org/2000/svg">
<path d="M13.0605 11.9997L19.2802 5.77997C19.4207 5.63929 19.4996 5.44858 19.4995 5.24975C19.4995 5.05092 19.4205 4.86026 19.2799 4.71967C19.1393 4.57907 18.9486 4.50006 18.7498 4.5C18.551 4.49994 18.3603 4.57883 18.2196 4.71933L11.9999 10.939L5.78021 4.71933C5.63953 4.57883 5.44881 4.49994 5.24999 4.5C5.05116 4.50006 4.8605 4.57907 4.7199 4.71967C4.57931 4.86026 4.5003 5.05092 4.50024 5.24975C4.50018 5.44858 4.57907 5.63929 4.71957 5.77997L10.9393 11.9997L4.71957 18.2193C4.64986 18.289 4.59455 18.3716 4.5568 18.4627C4.51905 18.5537 4.4996 18.6512 4.49957 18.7498C4.49954 18.8483 4.51893 18.9458 4.55662 19.0369C4.59431 19.1279 4.64957 19.2106 4.71924 19.2803C4.78891 19.35 4.87162 19.4052 4.96266 19.4429C5.05369 19.4806 5.15126 19.5 5.24979 19.5C5.34832 19.4999 5.44588 19.4805 5.53689 19.4427C5.6279 19.405 5.71058 19.3497 5.78021 19.28L11.9999 13.0603L18.2196 19.28C18.3603 19.4205 18.551 19.4994 18.7498 19.4993C18.9486 19.4992 19.1393 19.4202 19.2799 19.2796C19.4205 19.139 19.4995 18.9484 19.4995 18.7496C19.4996 18.5507 19.4207 18.36 19.2802 18.2193L13.0605 11.9997Z" fill="#333333"/>
</svg>
