<svg width="24" height="24" viewBox="0 0 24 24" fill="none" xmlns="http://www.w3.org/2000/svg">
<g clip-path="url(#clip0_57_6403)">
<path d="M22.5938 11.4959V8.6664C22.5938 7.27628 21.4876 6.14026 20.1094 6.09067V4.3539C20.1094 3.44926 19.3734 2.71328 18.4688 2.71328H13.952L13.3687 1.09201C13.22 0.678574 12.9189 0.348199 12.5211 0.161777C12.1232 -0.0246921 11.6767 -0.0445672 11.2638 0.105714L3.0675 3.08889C2.65509 3.23898 2.32608 3.54081 2.14102 3.93878C1.95595 4.33675 1.93716 4.78286 2.08814 5.19498L2.41744 6.09381C1.07048 6.17711 0 7.29883 0 8.6664V21.4164C0 22.838 1.15655 23.9945 2.57812 23.9945H20.0156C21.4372 23.9945 22.5938 22.838 22.5938 21.4164V18.4931C23.3877 18.379 24 17.6946 24 16.8695V13.1195C24 12.2945 23.3877 11.61 22.5938 11.4959ZM22.5938 16.8695C22.5938 16.9988 22.4886 17.1039 22.3594 17.1039H18.6094C17.4463 17.1039 16.5 16.1576 16.5 14.9945C16.5 13.8314 17.4463 12.8852 18.6094 12.8852H22.3594C22.4886 12.8852 22.5938 12.9903 22.5938 13.1195V16.8695ZM3.40856 4.71123C3.37945 4.63178 3.40078 4.5647 3.41611 4.53175C3.43144 4.49884 3.46898 4.43926 3.54848 4.41034L11.7448 1.42717C11.8244 1.39825 11.8914 1.41976 11.9244 1.43518C11.9573 1.45061 12.0168 1.48839 12.0455 1.56807L12.4575 2.71332H12.1406C11.236 2.71332 10.5 3.44931 10.5 4.35395V6.08833H3.91308L3.40856 4.71123ZM18.7031 4.3539V6.08828H11.9062V4.3539C11.9062 4.22467 12.0114 4.11953 12.1406 4.11953H18.4688C18.598 4.11953 18.7031 4.22467 18.7031 4.3539ZM20.0156 22.5883H2.57812C1.93195 22.5883 1.40625 22.0626 1.40625 21.4164V8.6664C1.40625 8.02023 1.93195 7.49453 2.57812 7.49453H20.0156C20.6618 7.49453 21.1875 8.02023 21.1875 8.6664V11.4789H18.6094C16.6709 11.4789 15.0938 13.056 15.0938 14.9945C15.0938 16.933 16.6709 18.5102 18.6094 18.5102H21.1875V21.4164C21.1875 22.0626 20.6618 22.5883 20.0156 22.5883Z" fill="#00B14F"/>
<path d="M18.6094 15.6973C18.9977 15.6973 19.3125 15.3825 19.3125 14.9941C19.3125 14.6058 18.9977 14.291 18.6094 14.291C18.221 14.291 17.9062 14.6058 17.9062 14.9941C17.9062 15.3825 18.221 15.6973 18.6094 15.6973Z" fill="#00B14F"/>
</g>
<defs>
<clipPath id="clip0_57_6403">
<rect width="24" height="24" fill="white"/>
</clipPath>
</defs>
</svg>
